REM MD5 f78d13b83685a2656c78e13e143a353f
FILE "Famitsu Wave 10gatsu-gou Vol. 15 (Japan).bin" BINARY
  TRACK 01 MODE2/2352
    INDEX 01 00:00:00
  TRACK 02 AUDIO
    INDEX 00 55:38:21
    INDEX 01 55:40:21
  TRACK 03 AUDIO
    INDEX 00 56:53:03
    INDEX 01 56:55:03
  TRACK 04 AUDIO
    INDEX 00 57:59:41
    INDEX 01 58:01:41
  TRACK 05 AUDIO
    INDEX 00 60:29:01
    INDEX 01 60:31:01
REM LEADOUT 63:38:41
